<svg xmlns="http://www.w3.org/2000/svg" viewBox="0 0 203.54 79.97"><defs><style>.cls-1{fill:#1cb8d1;}.cls-2{fill:#8cc04d;}.cls-3{fill:#e72264;}.cls-4{fill:#fcc00e;}.cls-5{fill:#e8453a;}.cls-6{fill:#833e90;}.cls-7{fill:#ccd73f;}.cls-8{fill:#f32735;}</style></defs><g id="Layer_2" data-name="Layer 2"><g id="Layer_2-2" data-name="Layer 2"><path class="cls-1" d="M16.49,48.38s-7.8-25.59-4.62-25.59,4.62,25.59,4.62,25.59"/><path class="cls-2" d="M21.2,30.55s-4.53-13.37-2.48-13.28S21.2,30.55,21.2,30.55"/><path class="cls-3" d="M26.88,17.33S26.42,1.4,28.75,2.42s-1.87,14.91-1.87,14.91"/><path class="cls-4" d="M28.64,33.54s4.34-23.16,7-21.4-7,21.4-7,21.4"/><polygon class="cls-5" points="18.66 35.17 17.17 33.96 18.05 32.75 19.54 33.96 18.66 35.17"/><polygon class="cls-6" points="29.46 19.59 28.39 21.23 27.2 20.36 28.27 18.73 29.46 19.59"/><polygon class="cls-5" points="28.94 37.32 27.64 40 25.8 39.02 27.09 36.33 28.94 37.32"/><polygon class="cls-4" points="23.81 21.47 25.04 23.13 23.76 23.91 22.53 22.25 23.81 21.47"/><polygon class="cls-4" points="13.57 15.72 15.7 13.74 17.37 15.32 15.24 17.31 13.57 15.72"/><polygon class="cls-6" points="15.42 22.79 17.26 22.38 17.56 23.87 15.72 24.28 15.42 22.79"/><polygon class="cls-5" points="17.6 56.99 17.11 55.07 18.51 54.68 18.99 56.59 17.6 56.99"/><polygon class="cls-6" points="19.29 43.92 18.19 41.14 20.1 40.3 21.2 43.08 19.29 43.92"/><polygon class="cls-4" points="19.91 51.24 17.93 51.15 18.19 49.61 20.18 49.7 19.91 51.24"/><polygon class="cls-7" points="23.43 34.58 23.19 36.58 21.64 36.59 21.89 34.59 23.43 34.58"/><polygon class="cls-7" points="24.51 43.73 24.56 46.72 22.34 47.03 22.29 44.03 24.51 43.73"/><path class="cls-8" d="M25.42,33.14A3.22,3.22,0,0,1,25,29.42a4.37,4.37,0,0,1,.54-.83,2.32,2.32,0,0,1-.21-.66,4.17,4.17,0,0,1,2.13-4.23l.19.41a3.65,3.65,0,0,0-1.89,3.74,2.22,2.22,0,0,0,.1.39,2.94,2.94,0,0,1,2.11-1,.83.83,0,0,1,.71.69,1.38,1.38,0,0,1-.36,1.36,1.66,1.66,0,0,1-1.72.26,1.8,1.8,0,0,1-.8-.55,4,4,0,0,0-.42.65,2.78,2.78,0,0,0,.39,3.21Zm.65-4.5a1.36,1.36,0,0,0,.64.46,1.26,1.26,0,0,0,1.3-.18.91.91,0,0,0,.21-.91.36.36,0,0,0-.34-.33,2.61,2.61,0,0,0-1.81,1"/><path class="cls-1" d="M20.15,15.41,19.92,15a6.17,6.17,0,0,0,2.51-6.1,2.27,2.27,0,0,0-.32-.86,3.94,3.94,0,0,1-2.55,1.8,1.13,1.13,0,0,1-1.17-.65,1.37,1.37,0,0,1,.13-1.5,2.62,2.62,0,0,1,2.66-.84,2.11,2.11,0,0,1,.88.45,4.55,4.55,0,0,0,.3-.72,2.7,2.7,0,0,0-.79-3l.29-.35a3.2,3.2,0,0,1,.91,3.45,4.07,4.07,0,0,1-.4.91,2.85,2.85,0,0,1,.49,1.19,6.74,6.74,0,0,1-2.71,6.57m.4-8.17A2.11,2.11,0,0,0,18.87,8a.89.89,0,0,0-.1,1,.7.7,0,0,0,.76.4,3.68,3.68,0,0,0,2.29-1.69,1.69,1.69,0,0,0-.74-.4,1.88,1.88,0,0,0-.53-.07"/><path class="cls-6" d="M32.88,11c-2-3.59-.69-5.85-.24-6.46A3.16,3.16,0,0,1,33,4.18,4.56,4.56,0,0,1,36.14,0l.1.45a4,4,0,0,0-2.78,3.32A1.86,1.86,0,0,1,35,3.46,1.48,1.48,0,0,1,36,5a1.43,1.43,0,0,1-.67,1.31,1.56,1.56,0,0,1-1.63.1A1.71,1.71,0,0,1,33,4.89c-.43.61-1.52,2.64.31,5.89Zm.51-6.62c0,.09,0,.18,0,.27A1.37,1.37,0,0,0,33.91,6a1.15,1.15,0,0,0,1.18-.08,1,1,0,0,0,.47-.9c0-.58-.27-1-.65-1.08a1.63,1.63,0,0,0-1.52.5"/><path class="cls-8" d="M11.88,40.26a177.92,177.92,0,0,0,5.57,28.85C23.82,56.15,30.66,38,35,24.44a29.35,29.35,0,0,1,3.88-.16,42.54,42.54,0,0,1,8.71.86c-5.79,17-15,38.27-24.74,54.35a35.17,35.17,0,0,1-6.39.48,30,30,0,0,1-5.95-.48C5.38,68.91,1.3,51.89,0,40.77A32.08,32.08,0,0,1,5.7,40a45.93,45.93,0,0,1,6.18.28"/><path class="cls-8" d="M66.43,71.33a11.4,11.4,0,0,1-2.74,7.38c-3.37,0-6.1-1.07-7.5-2.66a14.17,14.17,0,0,1-9.39,3.88c-7.09.48-12.19-4-12.73-11.83-.81-11.87,7.35-20.52,18.83-21.31,5.8-.39,10,.55,13,2L63.78,67.69c-.24,2.22.86,3.18,2.65,3.64m-17,.19A7.09,7.09,0,0,0,54,69.33l1.52-13.91A13.17,13.17,0,0,0,52,55.15c-5,.34-8.65,4.22-8.21,10.73.27,3.93,2.35,5.86,5.64,5.64"/><path class="cls-8" d="M68.09,73.44a22.81,22.81,0,0,1,.39-3.82l6.2-35a27.22,27.22,0,0,1,5-.38,21.78,21.78,0,0,1,4.66.38L78.24,68.78a4.84,4.84,0,0,0-.13,1,1.34,1.34,0,0,0,1.49,1.42,2,2,0,0,0,1.61-.7c2.07,1.74,2.85,4.13,2.78,7.1A13.08,13.08,0,0,1,76.11,80c-5.43,0-8-2.52-8-6.53"/><path class="cls-8" d="M111.1,76.93a20.73,20.73,0,0,1-13.66,2.88c-8.93-1-14-6.06-12.92-15.18,1.24-11,9.38-18.07,19.34-16.94,8,.9,12,5.32,11.38,11-.84,7.45-8,9.18-14.54,8.45a26.06,26.06,0,0,1-6.53-1.59c-.53,4.69,1.33,6.66,5.76,7.16,3.22.36,5.74-.66,8.32-2.19a7,7,0,0,1,2.85,6.44M95.37,60.13a27.73,27.73,0,0,0,5.31,1.31c3,.35,4.91-.81,5.17-3.12.19-1.73-1-3.3-3.44-3.58-3.34-.37-5.66,1.77-7,5.39"/><path class="cls-8" d="M139.32,48.5A14.4,14.4,0,0,1,136,56.6a10.82,10.82,0,0,0-3.37-.43,9.29,9.29,0,0,0-4.37,1.08L125,79.44a33.3,33.3,0,0,1-4.9.52,29.49,29.49,0,0,1-4.72-.27l4.26-28.63a24,24,0,0,1,12.06-3.6c3.36-.08,6,.24,7.66,1"/><path class="cls-8" d="M168.2,58.18a16.15,16.15,0,0,1-.33,3l-3.72,18.53a33,33,0,0,1-4.92.28,29.14,29.14,0,0,1-4.71-.5l3.36-17a8.07,8.07,0,0,0,.24-1.81c.06-2.9-1.52-4.17-4.37-4.23a12.85,12.85,0,0,0-4.67.6L144.7,79.24a31.75,31.75,0,0,1-4.92.27,28.17,28.17,0,0,1-4.71-.49l5.63-28.39a32.9,32.9,0,0,1,14.74-2.89c9.18.21,12.89,4.43,12.76,10.44"/><path class="cls-8" d="M187.84,41.49,197,29.11a11.44,11.44,0,0,1,6.53,6.27L191,44.64a6.26,6.26,0,0,1-3.2-3.15"/><path class="cls-8" d="M196.1,76.93a20.73,20.73,0,0,1-13.66,2.88c-8.93-1-13.95-6.06-12.92-15.18,1.24-11,9.38-18.07,19.34-16.94,8,.9,12,5.32,11.38,11-.84,7.45-8,9.18-14.54,8.45a26.06,26.06,0,0,1-6.53-1.59c-.53,4.69,1.33,6.66,5.76,7.16,3.22.36,5.74-.66,8.32-2.19a7,7,0,0,1,2.85,6.44m-15.73-16.8a27.73,27.73,0,0,0,5.31,1.31c3,.35,4.91-.81,5.17-3.12.19-1.73-1-3.3-3.44-3.58-3.34-.37-5.66,1.77-7,5.39"/></g></g></svg>