<svg xmlns="http://www.w3.org/2000/svg" viewBox="0 0 47.56 79.97"><defs><style>.cls-1{fill:#1cb8d1;}.cls-2{fill:#8cc04d;}.cls-3{fill:#e72264;}.cls-4{fill:#fcc00e;}.cls-5{fill:#e8453a;}.cls-6{fill:#833e90;}.cls-7{fill:#ccd73f;}.cls-8{fill:#f32735;}</style></defs><g id="Layer_2" data-name="Layer 2"><g id="Layer_3" data-name="Layer 3"><path class="cls-1" d="M16.49,48.38s-7.8-25.59-4.62-25.59,4.62,25.59,4.62,25.59"/><path class="cls-2" d="M21.2,30.55s-4.53-13.37-2.48-13.28S21.2,30.55,21.2,30.55"/><path class="cls-3" d="M26.88,17.33S26.42,1.4,28.75,2.42s-1.87,14.91-1.87,14.91"/><path class="cls-4" d="M28.64,33.54s4.34-23.16,7-21.4-7,21.4-7,21.4"/><polygon class="cls-5" points="18.66 35.17 17.17 33.96 18.05 32.75 19.54 33.96 18.66 35.17"/><polygon class="cls-6" points="29.46 19.59 28.39 21.23 27.2 20.36 28.27 18.73 29.46 19.59"/><polygon class="cls-5" points="28.94 37.32 27.64 40 25.8 39.02 27.09 36.33 28.94 37.32"/><polygon class="cls-4" points="23.81 21.47 25.04 23.13 23.76 23.91 22.53 22.25 23.81 21.47"/><polygon class="cls-4" points="13.57 15.72 15.7 13.74 17.37 15.32 15.24 17.31 13.57 15.72"/><polygon class="cls-6" points="15.42 22.79 17.26 22.38 17.56 23.87 15.72 24.28 15.42 22.79"/><polygon class="cls-5" points="17.6 56.99 17.11 55.07 18.51 54.68 18.99 56.59 17.6 56.99"/><polygon class="cls-6" points="19.29 43.92 18.19 41.14 20.1 40.3 21.2 43.08 19.29 43.92"/><polygon class="cls-4" points="19.91 51.24 17.93 51.15 18.19 49.61 20.18 49.7 19.91 51.24"/><polygon class="cls-7" points="23.43 34.58 23.19 36.58 21.64 36.59 21.89 34.59 23.43 34.58"/><polygon class="cls-7" points="24.51 43.73 24.56 46.72 22.34 47.03 22.29 44.03 24.51 43.73"/><path class="cls-8" d="M25.42,33.14A3.22,3.22,0,0,1,25,29.42a4.37,4.37,0,0,1,.54-.83,2.32,2.32,0,0,1-.21-.66,4.17,4.17,0,0,1,2.13-4.23l.19.41a3.65,3.65,0,0,0-1.89,3.74,2.22,2.22,0,0,0,.1.39,2.94,2.94,0,0,1,2.11-1,.83.83,0,0,1,.71.69,1.38,1.38,0,0,1-.36,1.36,1.66,1.66,0,0,1-1.72.26,1.8,1.8,0,0,1-.8-.55,4,4,0,0,0-.42.65,2.78,2.78,0,0,0,.39,3.21Zm.65-4.5a1.36,1.36,0,0,0,.64.46,1.26,1.26,0,0,0,1.3-.18.91.91,0,0,0,.21-.91.36.36,0,0,0-.34-.33,2.61,2.61,0,0,0-1.81,1"/><path class="cls-1" d="M20.15,15.41,19.92,15a6.17,6.17,0,0,0,2.51-6.1,2.27,2.27,0,0,0-.32-.86,3.94,3.94,0,0,1-2.55,1.8,1.13,1.13,0,0,1-1.17-.65,1.37,1.37,0,0,1,.13-1.5,2.62,2.62,0,0,1,2.66-.84,2.11,2.11,0,0,1,.88.45,4.55,4.55,0,0,0,.3-.72,2.7,2.7,0,0,0-.79-3l.29-.35a3.2,3.2,0,0,1,.91,3.45,4.07,4.07,0,0,1-.4.91,2.85,2.85,0,0,1,.49,1.19,6.74,6.74,0,0,1-2.71,6.57m.4-8.17A2.11,2.11,0,0,0,18.87,8a.89.89,0,0,0-.1,1,.7.7,0,0,0,.76.4,3.68,3.68,0,0,0,2.29-1.69,1.69,1.69,0,0,0-.74-.4,1.88,1.88,0,0,0-.53-.07"/><path class="cls-6" d="M32.88,11c-2-3.59-.69-5.85-.24-6.46A3.16,3.16,0,0,1,33,4.18,4.56,4.56,0,0,1,36.14,0l.1.45a4,4,0,0,0-2.78,3.32A1.86,1.86,0,0,1,35,3.46,1.48,1.48,0,0,1,36,5a1.43,1.43,0,0,1-.67,1.31,1.56,1.56,0,0,1-1.63.1A1.71,1.71,0,0,1,33,4.89c-.43.61-1.52,2.64.31,5.89Zm.51-6.62c0,.09,0,.18,0,.27A1.37,1.37,0,0,0,33.91,6a1.15,1.15,0,0,0,1.18-.08,1,1,0,0,0,.47-.9c0-.58-.27-1-.65-1.08a1.63,1.63,0,0,0-1.52.5"/><path class="cls-8" d="M11.88,40.26a177.92,177.92,0,0,0,5.57,28.85C23.82,56.15,30.66,38,35,24.44a29.35,29.35,0,0,1,3.88-.16,42.54,42.54,0,0,1,8.71.86c-5.79,17-15,38.27-24.74,54.35a35.17,35.17,0,0,1-6.39.48,30,30,0,0,1-5.95-.48C5.38,68.91,1.3,51.89,0,40.77A32.08,32.08,0,0,1,5.7,40a45.93,45.93,0,0,1,6.18.28"/></g></g></svg>