<?xml version="1.0" encoding="UTF-8"?><svg id="Layer_2" xmlns="http://www.w3.org/2000/svg" viewBox="0 0 147.4 152.13"><defs><style>.cls-1{fill:#fff;}.cls-2{isolation:isolate;}</style></defs><g id="Layer_1-2"><g class="cls-2"><path d="M54.66,12.64l12.2,13.23c-2.53-2.74-6.11-4.24-10.4-4.34-.67-.02-1.37,0-2.07,.06-23.18,1.8-41.09,45-41.22,65.93-.06,8.08,1.79,14.2,5.49,18.21l-12.2-13.23c-3.7-4.01-5.55-10.13-5.49-18.21C1.09,53.36,19.01,10.16,42.19,8.36c.71-.05,1.4-.07,2.07-.06,4.28,.1,7.87,1.6,10.4,4.34Z"/><path class="cls-1" d="M54.73,27.53c-7.22,.49-14.96,12.09-20.49,26.56-4.07-4.41-8.13-8.82-12.2-13.23,5.53-14.48,13.27-26.07,20.49-26.56,.3-.02,.61-.03,.91-.02,1.55,.04,3.15,.46,4.32,1.73l12.2,13.23c-1.17-1.27-2.77-1.7-4.32-1.73-.31,0-.61,0-.91,.02Z"/><path class="cls-1" d="M34.24,54.09c-1.79,4.68-3.35,9.66-4.58,14.66-4.07-4.41-8.13-8.82-12.2-13.23,1.24-5,2.79-9.98,4.58-14.66l1.42,1.54,1.51,1.64,1.57,1.7,1.6,1.73,1.6,1.73,1.57,1.7,1.51,1.64,1.42,1.54Z"/><path class="cls-1" d="M68.2,27.59c1.26,1.92,2.05,4.2,2.38,6.75-4.07-4.41-8.13-8.82-12.2-13.23-.33-2.55-1.12-4.83-2.38-6.75-.41-.62-.85-1.19-1.34-1.72l12.2,13.23c.49,.53,.94,1.1,1.34,1.72Z"/><path class="cls-1" d="M28.34,96.24c-4.07-4.41-8.13-8.82-12.2-13.23-1.17-2.24-1.81-4.96-1.71-7.57,.25-6.21,1.34-13.08,3.03-19.91l1.42,1.54,1.51,1.64,1.57,1.7,1.6,1.73,1.6,1.73,1.57,1.7,1.51,1.64,1.42,1.54c-1.69,6.83-2.77,13.7-3.03,19.91-.1,2.61,.54,5.33,1.71,7.57Z"/><path d="M47.04,16.68l12.2,13.23c-.85-.92-2.06-1.4-3.64-1.43-.28,0-.57,0-.87,.02-11.1,.75-26.06,33.92-27.13,60.14-.14,3.47,1.2,7.27,3.31,9.55l-12.2-13.23c-2.11-2.28-3.44-6.08-3.31-9.55,1.07-26.23,16.03-59.39,27.13-60.14,.3-.02,.59-.03,.87-.02,1.58,.04,2.79,.51,3.64,1.43Z"/><path d="M47.77,16.01l12.2,13.23c.98,1.06,1.66,2.71,1.76,5.21,.23,6.09-3.3,14.98-8.23,20.7l-12.2-13.23c4.93-5.73,8.46-14.61,8.23-20.7-.1-2.5-.78-4.15-1.76-5.21Z"/><path d="M53.7,58.39l-12.2-13.23c-.72-.78-.81-1.9-.21-3.24l12.2,13.23c-.59,1.34-.51,2.46,.21,3.24Z"/><path class="cls-1" d="M55.61,58.02c-.67-.72-1.33-1.44-2-2.16-1.16-1.26-2.32-2.51-3.48-3.77l-1.39-1.51-2.02-2.19-1.28-1.39c-.18-.2-.44-.45-.61-.66h0l1.24,1.34,1.31,1.42,1.36,1.47,1.39,1.51,1.4,1.52,1.39,1.51,1.36,1.48,1.32,1.43Z"/><path class="cls-1" d="M70.58,34.34c.73,5.61-.77,12.56-4.43,20.01l-12.2-13.23c3.66-7.45,5.16-14.4,4.43-20.01l1.42,1.54,1.51,1.64,1.57,1.7,1.6,1.73,.8,.87,1.59,1.72,.78,.84,1.51,1.64c.43,.46,1.16,.97,1.42,1.54Z"/><path d="M55.38,11.96l12.2,13.23c.52,.57,1,1.18,1.44,1.85,4.21,6.44,3.48,16.54-2,27.72l-12.2-13.23c5.49-11.18,6.21-21.28,2-27.72-.43-.66-.91-1.28-1.44-1.85Z"/><path class="cls-1" d="M54.79,59.13c-.45-.2-.81-.44-1.08-.74l-12.2-13.23c.27,.29,.63,.54,1.08,.74,4.07,4.41,8.13,8.82,12.2,13.23-4.07-4.41-8.13-8.82-12.2-13.23,.62,.27,1.4,.42,2.25,.44h0c.18,.24,.41,.44,.61,.66,1.56,1.69,3.12,3.39,4.69,5.08,2.3,2.49,4.6,4.99,6.9,7.48-4.07-4.41-8.13-8.82-12.2-13.23,3.04,.07,7.12-1.52,9.11-5.21l12.2,13.23c-1.99,3.7-6.07,5.29-9.11,5.21-.86-.02-1.63-.17-2.25-.44Z"/><path d="M52.96,59.06l-12.2-13.23c.35,.38,.82,.71,1.39,.95,.74,.32,1.64,.5,2.64,.53,3.39,.08,7.8-1.66,10.03-5.79l12.2,13.23c-2.23,4.13-6.64,5.87-10.03,5.79-1-.02-1.9-.2-2.64-.53-.57-.25-1.03-.57-1.39-.95Z"/><path d="M129.37,7.56l12.2,13.23c-.27-.29-.55-.57-.84-.85-3.84-3.64-9.39-5.59-16.21-5.75-1.62-.04-3.31,.03-5.07,.19-11.67,1.12-29.8,9.68-32.02,22.21-.19,1.18,.73,3.06,1.95,4.38l-12.2-13.23c-1.21-1.32-2.14-3.2-1.95-4.38,2.22-12.53,20.35-21.09,32.02-22.21,1.76-.17,3.45-.23,5.07-.19,6.82,.16,12.36,2.11,16.21,5.75,.29,.27,.57,.55,.84,.85Z"/><path class="cls-1" d="M105.83,23.08c-3.12,1.62-5.29,3.76-6.89,6.02-4.07-4.41-8.13-8.82-12.2-13.23,1.6-2.27,3.77-4.4,6.89-6.02,1.5,1.63,3,3.26,4.5,4.88,.8,.87,1.6,1.73,2.4,2.6,1.77,1.92,3.53,3.83,5.3,5.75Z"/><path class="cls-1" d="M94.96,37.39c-.13,.35-.25,.69-.37,1.02-4.07-4.41-8.13-8.82-12.2-13.23,.12-.33,.25-.67,.37-1.02,.91-2.5,2.01-5.49,3.98-8.29l1.42,1.54,1.51,1.64,3.16,3.43,1.6,1.73,1.57,1.7,1.51,1.64,1.42,1.54c-1.97,2.79-3.07,5.79-3.98,8.29Z"/><path class="cls-1" d="M90.7,42.09c-.45-.27-.91-.65-1.33-1.11l-12.2-13.23c.42,.45,.87,.84,1.33,1.11,4.07,4.41,8.13,8.82,12.2,13.23Z"/><path class="cls-1" d="M114.18,20.5c-3.36,.5-6.1,1.41-8.35,2.58-.98-1.06-1.96-2.12-2.93-3.18-.47-.51-1.1-1.19-1.57-1.7l-.8-.86c-1.06-1.15-2.12-2.3-3.18-3.45l-1.54-1.67-.75-.81-1.42-1.54c2.25-1.17,4.98-2.08,8.35-2.58,4.07,4.41,8.13,8.82,12.2,13.23Z"/><path class="cls-1" d="M28.34,96.24c.51,.98,1.12,1.87,1.81,2.62l-12.2-13.23c-.69-.75-1.3-1.64-1.81-2.62l1.28,1.39,1.36,1.47,1.41,1.53,1.44,1.56c1.83,1.98,3.66,3.97,5.49,5.95l.14,.15,.15,.16,.16,.17,.16,.17,.16,.17,.08,.09,.15,.17c.07,.08,.16,.15,.22,.24Z"/><path class="cls-1" d="M90.7,42.09c-.15-.12-.3-.33-.43-.47l-.46-.49-.95-1.03-1.84-1.99c-2.84-3.08-5.68-6.16-8.52-9.24,.17,.1,.34,.18,.51,.25,.25,.09,.46,.13,.64,.14,.6,.01,.9-.36,1.01-.51,.65-.83,1.17-2.08,1.72-3.56,4.07,4.41,8.13,8.82,12.2,13.23-.55,1.48-1.07,2.73-1.72,3.56-.11,.15-.41,.52-1.01,.51-.18,0-.4-.04-.64-.14-.17-.06-.34-.15-.51-.25Z"/><path class="cls-1" d="M117.34,20.16c-1.11,.08-2.16,.19-3.16,.34-4.07-4.41-8.13-8.82-12.2-13.23,1-.15,2.05-.26,3.16-.34,.65-.04,1.29-.06,1.9-.04,.45,.01,.9,.04,1.33,.08l1.42,1.54,1.51,1.64,1.57,1.7,1.6,1.73,1.6,1.73,1.57,1.7,1.51,1.64,1.42,1.54c-.43-.04-.88-.07-1.33-.08-.62-.01-1.25,0-1.9,.04Z"/><path d="M30.15,98.86l-12.2-13.23c.21,.23,.43,.44,.65,.64,1.29,1.14,2.71,1.75,4.17,1.78,.29,0,.59,0,.88-.05,5.6-.78,9-6.33,15.78-17.37,1.44-2.35,3.03-4.95,4.84-7.83l12.2,13.23c-1.81,2.88-3.4,5.48-4.84,7.83-6.78,11.04-10.18,16.59-15.78,17.37-.3,.04-.59,.06-.88,.05-1.46-.03-2.89-.64-4.17-1.78-.22-.2-.44-.42-.65-.64Z"/><path class="cls-1" d="M19.73,106.79c-.37-.34-.73-.69-1.08-1.06l-12.2-13.23c.34,.37,.7,.72,1.08,1.06,2.79,2.5,6.46,3.86,10.52,3.95,.83,.02,1.67-.01,2.53-.1,2.3-.24,4.4-1.07,6.35-2.38,4.07,4.41,8.13,8.82,12.2,13.23-1.95,1.31-4.05,2.14-6.35,2.38-.86,.09-1.7,.12-2.53,.1-4.05-.09-7.72-1.46-10.52-3.95Z"/><path class="cls-1" d="M48.16,97.94c-2.77,4.45-5.69,8.09-9.04,10.33-4.07-4.41-8.13-8.82-12.2-13.23,3.35-2.24,6.27-5.88,9.04-10.33,2.3,2.49,4.6,4.99,6.9,7.48,1.77,1.92,3.53,3.83,5.3,5.75Z"/><path class="cls-1" d="M52.65,89.95c-4.07-4.41-8.13-8.82-12.2-13.23,.53-1.03,1.07-2.07,1.61-3.13l12.2,13.23c-.54,1.06-1.07,2.11-1.61,3.13Z"/><path class="cls-1" d="M52.65,89.95c-1.48,2.85-2.96,5.55-4.49,8-1.5-1.63-3-3.26-4.5-4.88-2.56-2.78-5.13-5.56-7.69-8.34,1.53-2.45,3.01-5.15,4.49-7.99l.91,.98,.96,1.04,2.02,2.19,1.02,1.1,1,1.08,.96,1.04,.91,.99,.52,.56,.55,.59,.57,.62,.58,.63,.58,.63,.57,.62,.55,.59,.52,.56Z"/><path d="M17.92,106.41l-12.2-13.23c.36,.39,.74,.76,1.13,1.12,2.95,2.64,6.82,4.08,11.1,4.18,.87,.02,1.76-.02,2.66-.11,9.07-.95,15.02-10.27,21.02-21.88l12.2,13.23c-6,11.61-11.95,20.93-21.02,21.88-.9,.09-1.79,.13-2.66,.11-4.28-.1-8.15-1.54-11.1-4.18-.39-.35-.77-.72-1.13-1.12Z"/><polygon class="cls-1" points="38.13 108.72 50.32 121.95 49.26 122.77 37.07 109.55 38.13 108.72"/><path d="M26.52,148.64l-12.2-13.23c-.96-1.04-1.61-2.51-1.65-4.55-.18-9.09,13.17-17.9,21.14-23.16,1.92-1.26,3.57-2.35,4.94-3.55l12.2,13.23c-1.36,1.19-3.02,2.29-4.94,3.55-7.97,5.26-21.32,14.07-21.14,23.16,.04,2.04,.69,3.51,1.65,4.55Z"/><path class="cls-1" d="M29.83,143.97c-3.09-3.35-6.17-6.69-9.26-10.04,3.09,3.35,6.17,6.69,9.26,10.04h0Z"/><path class="cls-1" d="M125.99,21.72c-1.59-.82-3.41-1.33-5.42-1.52-4.07-4.41-8.13-8.82-12.2-13.23,2.02,.19,3.83,.71,5.42,1.52,2.03,2.2,4.07,4.41,6.1,6.61l1.6,1.73,1.57,1.7,1.51,1.64,1.42,1.54Z"/><path d="M116.45,11.76l12.2,13.23c-2.12-2.3-5.19-3.81-9.45-3.91-.6-.01-1.22,0-1.87,.04-15.8,1.08-19.08,10.02-21.47,16.55-.73,1.99-1.36,3.72-2.25,4.86-.49,.62-1.12,.93-1.85,.92-.31,0-.63-.07-.96-.2-.76-.29-1.52-.87-2.19-1.59l-12.2-13.23c.67,.72,1.43,1.3,2.19,1.59,.33,.13,.66,.19,.96,.2,.72,.02,1.36-.29,1.85-.92,.89-1.14,1.52-2.87,2.25-4.86,2.39-6.53,5.67-15.47,21.47-16.55,.65-.04,1.27-.06,1.87-.04,4.25,.1,7.33,1.61,9.45,3.91Z"/><polygon points="104.59 15.05 116.79 28.28 108.32 28.23 96.13 15 104.59 15.05"/><polygon points="105.67 14.09 117.87 27.32 117.81 27.82 105.62 14.59 105.67 14.09"/><polygon class="cls-1" points="43.41 70.94 55.6 84.16 54.26 86.81 42.06 73.58 43.41 70.94"/><polygon points="55.61 61.5 67.81 74.72 56.48 76.04 44.28 62.81 55.61 61.5"/><polygon points="56.56 60.42 68.76 73.65 68.8 74.12 56.6 60.89 56.56 60.42"/><polygon points="43.41 70.94 55.6 84.16 55.17 87.04 42.97 73.81 43.41 70.94"/><path class="cls-1" d="M129.49,24.37c-1-1.08-2.17-1.97-3.49-2.65-4.07-4.41-8.13-8.82-12.2-13.23,1.33,.68,2.49,1.57,3.49,2.65,3.66,3.97,8.54,9.26,12.2,13.23Z"/><polygon points="69.97 63.64 82.16 76.87 79.43 77.13 67.23 63.91 69.97 63.64"/><polygon points="71.11 62.56 83.31 75.79 83.22 76.37 71.02 63.14 71.11 62.56"/><path class="cls-1" d="M141.56,20.79c1.39,1.5,2.49,3.25,3.29,5.19-4.07-4.41-8.13-8.82-12.2-13.23-.8-1.95-1.9-3.69-3.29-5.19,3.66,3.97,8.54,9.26,12.2,13.23Z"/><path d="M42.97,73.81l12.2,13.23c-.27,1.84-.71,5.24-1.21,9.16-1,7.83-2.23,17.57-3.01,21.17l-12.2-13.23c.78-3.6,2.01-13.34,3.01-21.17,.49-3.93,.93-7.33,1.21-9.16Z"/><polygon class="cls-1" points="50.62 95.18 62.81 108.41 62.45 110.21 50.25 96.98 50.62 95.18"/><polygon points="51.45 95.53 63.65 108.76 62.45 110.21 50.25 96.98 51.45 95.53"/><path class="cls-1" d="M55.61,61.5l12.2,13.23c-.34,4.15-4.42,30.78-5,33.68l-12.2-13.23c.57-2.9,4.65-29.54,5-33.68Z"/><path d="M56.6,60.89l12.2,13.23c.11,1.65-3.53,25.49-4.72,32.63l-12.2-13.23c1.19-7.14,4.83-30.97,4.72-32.63Z"/><path d="M79.43,77.13c-1.17,6.94-4.72,15.33-9.62,23.11-2.03-2.2-4.06-4.41-6.1-6.61-1.56-1.69-3.12-3.38-4.67-5.07l-1.42-1.54c4.91-7.78,8.46-16.17,9.62-23.11,3.66,3.97,8.54,9.26,12.2,13.23Z"/><path d="M68.65,101.11c-.9,.86-1.59,2.08-1.69,3.35-3.59-3.89-7.18-7.79-10.77-11.68l-1.42-1.54c.11-1.27,.8-2.49,1.69-3.35,.34-.33,.73-.62,1.15-.87l12.2,13.23c-.42,.24-.81,.54-1.15,.87Z"/><path class="cls-1" d="M82.16,76.87c-.89,5.01-3.14,13.12-8.88,22.8-2.03-2.2-4.07-4.41-6.1-6.62-.79-.86-1.59-1.72-2.39-2.59-.35-.38-.81-.88-1.16-1.26s-.79-.85-1.13-1.22l-1.42-1.54c5.74-9.68,7.99-17.79,8.88-22.8,3.66,3.97,8.54,9.26,12.2,13.23Z"/><path class="cls-1" d="M72.36,99.54c-.9-.02-1.78,.26-2.56,.71-3.59-3.89-7.18-7.79-10.77-11.68l-1.42-1.54c.78-.45,1.66-.73,2.56-.71,.31,0,.62,.05,.92,.13l12.2,13.23c-.31-.08-.61-.12-.92-.13Z"/><path d="M54.77,91.23l12.2,13.23c-1.06,1.48-2.17,2.92-3.31,4.3l-12.2-13.23c1.14-1.38,2.25-2.82,3.31-4.3Z"/><path d="M74.16,100.03c-.29-.16-.58-.28-.88-.36l-12.2-13.23c.3,.08,.59,.2,.88,.36,3.66,3.97,8.54,9.26,12.2,13.23Z"/><path d="M71.02,63.14l12.2,13.23c-.82,5.01-3.04,13.49-9.06,23.66l-12.2-13.23c6.01-10.17,8.24-18.64,9.06-23.66Z"/><path class="cls-1" d="M67.34,106.47c-4.07-4.41-8.13-8.82-12.2-13.23-.32-.66-.43-1.35-.37-2.01l12.2,13.23c-.06,.67,.05,1.35,.37,2.01Z"/><path class="cls-1" d="M67.34,106.47c.05,.11,.11,.22,.18,.33l-12.2-13.23c-.07-.11-.13-.22-.18-.33l.89,.97,.95,1.03,.98,1.07,1,1.09,1,1.09,.98,1.07,.95,1.03,.89,.97,1.09,1.18,.58,.63,.59,.64,.59,.64,.29,.32,.57,.62,.28,.3c.16,.17,.4,.38,.53,.57Z"/><path d="M61.69,87.8l12.2,13.23c-.53-.34-1.08-.5-1.63-.51-1.1-.03-2.18,.52-2.95,1.26-1.14,1.1-1.87,2.87-1,4.4l-12.2-13.23c-.87-1.53-.14-3.31,1-4.4,.77-.74,1.85-1.29,2.95-1.26,.55,.01,1.11,.17,1.63,.51Z"/><path class="cls-1" d="M144.85,25.98c1.06,2.57,1.59,5.5,1.58,8.71-4.07-4.41-8.13-8.82-12.2-13.23,0-3.21-.53-6.14-1.58-8.71l1.42,1.54,1.51,1.64,1.57,1.7,1.6,1.73,1.6,1.73,.79,.86,1.54,1.67,1.47,1.6c.21,.23,.53,.5,.7,.76Z"/><path class="cls-1" d="M146.43,35.16c-4.07-4.41-8.13-8.82-12.2-13.23,0-.16,0-.31,0-.46l1.42,1.54,1.51,1.64,1.57,1.7,1.6,1.73,1.6,1.73,1.57,1.7,1.51,1.64,1.42,1.54c0,.15,0,.31,0,.46Z"/><path d="M96.13,15l12.2,13.23c-1.42,9.16-16.67,60.47-27.9,70.24l-12.2-13.23c11.23-9.77,26.48-61.08,27.9-70.24Z"/><path class="cls-1" d="M104.59,15.05l12.2,13.23c-1.59,11.75-16.42,60.47-27.34,72.33l-12.2-13.23c10.92-11.86,25.75-60.58,27.34-72.33Z"/><polygon class="cls-1" points="77.25 87.38 89.45 100.61 80.42 98.47 68.23 85.24 77.25 87.38"/><path d="M105.62,14.59l12.2,13.23c-1.22,10.94-16.68,61.88-27.89,73.65l-12.2-13.23c11.21-11.77,26.66-62.71,27.89-73.65Z"/><path d="M117.29,11.14l12.2,13.23c2.6,2.82,4.04,6.96,4.03,12.14,0,11.45-11.49,25.53-21.85,30.77l-12.2-13.23c10.35-5.24,21.84-19.32,21.85-30.77,0-5.18-1.43-9.32-4.03-12.14Z"/><polygon class="cls-1" points="112.61 52.63 124.81 65.86 123.6 66.41 111.4 53.18 112.61 52.63"/><path class="cls-1" d="M118.53,71.99c-2.08-2.26-4.47-3.89-6.86-4.71l-12.2-13.23c2.39,.82,4.78,2.45,6.86,4.71,3.66,3.97,8.54,9.26,12.2,13.23Z"/><path d="M105.62,59.44l12.2,13.23c-2.31-2.5-5.01-4.19-7.63-4.78l-12.2-13.23c2.62,.6,5.33,2.28,7.63,4.78Z"/><polygon points="112.62 53.53 124.82 66.76 123.6 66.41 111.4 53.18 112.62 53.53"/><path class="cls-1" d="M136.81,57.52c-4.07-4.41-8.13-8.82-12.2-13.23,5.4-5.57,8.24-12.13,9.22-18.03,4.07,4.41,8.13,8.82,12.2,13.23-.98,5.9-3.82,12.46-9.22,18.03Z"/><path class="cls-1" d="M136.81,57.52c-3.11,3.21-7.06,6.09-12,8.34l-12.2-13.23c4.93-2.24,8.89-5.13,12-8.34,4.07,4.41,8.13,8.82,12.2,13.23Z"/><polygon points="77.73 88.24 89.93 101.46 89.72 101.68 77.53 88.45 77.73 88.24"/><polygon points="77.53 88.45 89.72 101.68 78.2 98.95 66 85.72 77.53 88.45"/><path class="cls-1" d="M146.03,39.48c-4.07-4.41-8.13-8.82-12.2-13.23,.2-1.21,.32-2.39,.37-3.53,.01-.27,.02-.53,.03-.8,2.77,3,5.53,6,8.3,9,1.3,1.41,2.6,2.82,3.9,4.23,0,.26-.01,.53-.03,.8-.05,1.14-.17,2.32-.37,3.53Z"/><path d="M130.1,6.88l12.2,13.23c3.62,3.93,5.37,9.37,5.07,15.83-.44,9.95-6.23,22.99-21.08,30.26l-12.2-13.23c14.85-7.26,20.63-20.3,21.08-30.26,.3-6.46-1.45-11.9-5.07-15.83Z"/><path d="M106.33,58.76l12.2,13.23c3.66,3.96,6.35,9.86,6.35,16.71,0,12.97-13.75,18-17.97,19.24-2.62,.77-5.27,1.05-7.88,.99-8.36-.19-16.4-3.9-22.19-6.56-1.06-.49-2.05-.94-2.95-1.34l-12.2-13.23c.9,.39,1.89,.84,2.95,1.34,5.79,2.66,13.83,6.37,22.19,6.56,2.61,.06,5.26-.22,7.88-.99,4.22-1.23,17.96-6.27,17.97-19.24,0-6.85-2.69-12.75-6.35-16.71Z"/><path class="cls-1" d="M86.08,113.88c-6.85-1.8-13.04-4.69-17.77-7.7l-12.2-13.23c4.73,3.01,10.92,5.89,17.77,7.7l1.42,1.54,1.51,1.64,1.57,1.7,1.6,1.73,1.6,1.73,1.57,1.7,1.51,1.64c.43,.46,1,1.08,1.42,1.54Z"/><path d="M121.03,58.71l12.2,13.23c-2.36-2.56-5.36-4.32-8.41-5.18l-12.2-13.23c3.05,.86,6.05,2.62,8.41,5.18Z"/><path class="cls-1" d="M98.93,115.75c-4.4-.1-8.75-.8-12.85-1.88-4.07-4.41-8.13-8.82-12.2-13.23,4.11,1.08,8.45,1.78,12.85,1.88,2.87,.07,5.76-.12,8.63-.61,1.57-.27,3.16-.64,4.74-1.1l1.36,1.47,1.44,1.56,1.5,1.62,1.52,1.65,1.52,1.65,1.5,1.62,1.44,1.56,1.36,1.47,.07,.07,.07,.08,.07,.08,.07,.08,.07,.08,.07,.08,.07,.08,.07,.07c-1.58,.47-3.17,.83-4.74,1.1-2.87,.49-5.77,.68-8.63,.61Z"/><path class="cls-1" d="M130.94,102.42c-4.07-4.41-8.13-8.82-12.2-13.23,3.36-3.91,5.8-8.65,6.71-14.21,1.16-6.97-.94-12.5-4.42-16.28l12.2,13.23c3.48,3.78,5.58,9.3,4.42,16.28-.91,5.55-3.35,10.3-6.71,14.21Z"/><path class="cls-1" d="M112.3,114.04c-4.07-4.41-8.13-8.82-12.2-13.23,6.92-2.04,13.75-5.94,18.63-11.61,4.07,4.41,8.13,8.82,12.2,13.23-4.88,5.67-11.72,9.58-18.63,11.61Z"/><path d="M121.77,58.03l12.2,13.23c3.65,3.96,5.85,9.75,4.63,17.05-2.59,15.97-17.41,25.46-30.93,27.79-2.89,.5-5.89,.7-8.96,.63-9.91-.23-20.46-3.35-29.69-8.93-.27-.16-.53-.33-.8-.49-.19-.12-.37-.23-.56-.35l-12.2-13.23c.18,.12,.37,.23,.56,.35,.27,.17,.53,.33,.8,.49,9.23,5.58,19.77,8.7,29.69,8.93,3.07,.07,6.07-.13,8.96-.63,13.52-2.33,28.34-11.82,30.93-27.79,1.22-7.3-.98-13.09-4.63-17.05Z"/><path d="M114.1,52.97c7.48,2.65,14.25,10.45,12.3,22.11-2.59,15.97-17.41,25.46-30.93,27.79-2.89,.5-5.89,.7-8.96,.63-9.91-.23-20.46-3.35-29.69-8.93-.27-.16-.53-.33-.8-.49-.19-.12-.37-.23-.56-.35-.61-.9-.76-1.71-.7-2.49,.11-1.27,.8-2.49,1.69-3.35,.34-.33,.73-.62,1.15-.87,.78-.45,1.66-.73,2.56-.71,.31,0,.62,.05,.92,.13,.3,.08,.59,.2,.88,.36,1.07,.51,2.06,.96,3.13,1.45,5.71,2.63,13.65,6.29,21.82,6.48,2.52,.06,5.07-.21,7.58-.95,5.17-1.51,17.2-6.33,17.2-18.24,0-10.97-7.11-19.38-13.72-20.88l-1.36-.32,1.34-.6c10.35-4.59,22.39-18.87,22.4-30.39,0-7.51-3.54-15.27-13.34-15.5-.6-.01-1.22,0-1.87,.04-15.8,1.08-19.08,10.02-21.47,16.55-.73,1.99-1.36,3.72-2.25,4.86-.49,.62-1.12,.93-1.85,.92-.31,0-.63-.07-.96-.2-2.35-.9-4.69-4.54-4.32-6.74C76.6,10.24,95.23,1.36,107.23,.21c1.8-.17,3.53-.24,5.19-.2,7.05,.16,12.8,2.2,16.81,5.99,4.21,3.98,6.27,9.75,5.95,16.71-.44,9.95-6.23,22.99-21.08,30.26Zm11.35,22.02c1.95-11.7-5.28-19.32-12.83-21.45l-1.22-.35,1.21-.55c15.26-6.94,21.15-20,21.59-29.9,.31-6.68-1.65-12.22-5.68-16.01-3.84-3.64-9.39-5.59-16.21-5.75-1.62-.04-3.31,.03-5.07,.19-11.67,1.12-29.8,9.68-32.02,22.21-.28,1.73,1.86,5,3.78,5.73,.25,.09,.46,.13,.64,.14,.6,.01,.9-.36,1.01-.51,.79-1.02,1.4-2.66,2.1-4.58,2.35-6.42,5.9-16.12,22.38-17.23,.65-.04,1.29-.06,1.9-.04,8.87,.21,14.28,6.33,14.28,16.39,0,11.45-11.49,25.53-21.85,30.77,6.57,2.27,13.21,10.67,13.2,21.42,0,12.97-13.75,18-17.97,19.24-2.62,.77-5.27,1.05-7.88,.99-8.36-.19-16.4-3.9-22.19-6.56-1.06-.49-2.05-.94-2.95-1.34-.53-.34-1.08-.5-1.63-.51-1.1-.03-2.18,.52-2.95,1.26-1.14,1.1-1.87,2.87-1,4.4,7.57,4.82,18.88,9.3,30.63,9.57,2.87,.07,5.76-.12,8.63-.61,13.15-2.26,27.56-11.47,30.08-26.93"/><path class="cls-1" d="M67.23,63.91l2.73-.27c-.89,5.01-3.14,13.12-8.88,22.8-.31-.08-.61-.12-.92-.13-.9-.02-1.78,.26-2.56,.71,4.91-7.78,8.46-16.17,9.62-23.11Z"/><path class="cls-1" d="M45.83,125.26c-4.81,3.42-11.46,8.15-14.49,12.94-4.07-4.41-8.13-8.82-12.2-13.23,3.03-4.79,9.68-9.52,14.49-12.94,1.35-.96,2.52-1.79,3.43-2.49l12.2,13.23c-.91,.7-2.07,1.53-3.43,2.49Z"/><polygon points="38.13 108.72 50.32 121.95 50.01 123.23 37.82 110 38.13 108.72"/><polygon points="97.98 54.65 110.18 67.88 108.82 67.56 96.62 54.34 97.98 54.65"/><path class="cls-1" d="M68.22,107.3c-1.8,2.44-3.82,4.95-6.1,7.5l-12.2-13.23c2.28-2.55,4.3-5.06,6.1-7.5,3.66,3.97,8.54,9.26,12.2,13.23Z"/><path class="cls-1" d="M62.12,114.8l-.03,.15c-4.07-4.41-8.13-8.82-12.2-13.23l.03-.15c3.66,3.97,8.54,9.26,12.2,13.23Z"/><path d="M56.82,94.56l12.2,13.23c-1.8,2.45-3.83,4.96-6.1,7.52l-12.2-13.23c2.27-2.56,4.3-5.07,6.1-7.52Z"/><path class="cls-1" d="M29.83,143.97c.16,.78,.51,1.47,1.04,2.05l-12.2-13.23c-.75-.81-1.14-1.85-1.14-3.05,4.06,4.4,8.12,8.8,12.18,13.21-4.06-4.4-8.12-8.8-12.18-13.21h0c0-1.57,.61-3.17,1.62-4.77,4.07,4.41,8.13,8.82,12.2,13.23-1.01,1.6-1.62,3.2-1.62,4.77,0,.35,.03,.68,.1,1-4.06-4.41-8.13-8.81-12.19-13.22l.17,.19c1.11,1.21,2.23,2.42,3.34,3.63l1.18,1.28,1.2,1.3,1.2,1.3,1.19,1.29,1.17,1.27,.57,.62,1.11,1.2,.54,.58c.16,.17,.42,.36,.52,.57Z"/><path d="M31.61,145.34l-12.2-13.23c-.6-.65-.91-1.49-.91-2.45,0-5.73,9.43-12.42,15.66-16.85,.88-.63,1.69-1.2,2.4-1.73l12.2,13.23c-.71,.52-1.52,1.1-2.4,1.73-6.24,4.43-15.66,11.12-15.66,16.85,0,.97,.31,1.81,.91,2.45Z"/><path class="cls-1" d="M29.43,150.47c-1.07-.38-2.1-.96-2.9-1.84l-12.2-13.23c.81,.87,1.83,1.45,2.9,1.84l1.42,1.54,1.51,1.64,1.57,1.7,1.6,1.73,1.6,1.73,1.57,1.7,1.51,1.64c.43,.46,1,1.08,1.42,1.54Z"/><path d="M77.73,88.24l-.2,.21-11.52-2.73,.88-.61c11-7.68,27.42-62.97,28.34-70.61l.06-.46,10.39,.06-.05,.49c-1.22,10.94-16.68,61.88-27.89,73.65Zm-9.5-2.99l9.03,2.14c10.92-11.86,25.75-60.58,27.34-72.33l-8.46-.05c-1.42,9.16-16.67,60.47-27.9,70.24"/><path class="cls-1" d="M96.13,15l8.46,.05c-1.59,11.75-16.42,60.47-27.34,72.33l-9.03-2.14c11.23-9.77,26.48-61.08,27.9-70.24Z"/><path class="cls-1" d="M33.5,151.16c-1.17-.03-2.66-.18-4.07-.69-4.07-4.41-8.13-8.82-12.2-13.23,1.41,.5,2.9,.66,4.07,.69,.6,.01,1.11,0,1.48-.03h.04c4.07,4.41,8.13,8.82,12.2,13.22h-.04c-.38,.03-.89,.05-1.48,.03Z"/><path d="M30.86,146.01l-12.2-13.23c.12,.13,.25,.26,.39,.38,.95,.81,2.27,1.27,3.73,1.3,.43,0,.86-.02,1.31-.08,5.36-.77,9.97-8.98,13.71-24.39l12.2,13.23c-3.75,15.41-8.36,23.61-13.71,24.39-.45,.06-.89,.09-1.31,.08-1.46-.03-2.78-.49-3.73-1.3-.14-.12-.27-.24-.39-.38Z"/><path class="cls-1" d="M62.08,114.95c-1.21,5.33-3.46,11.6-6.49,17.41-4.07-4.41-8.13-8.82-12.2-13.23,3.03-5.81,5.28-12.09,6.49-17.41l1.42,1.54,1.51,1.64,1.57,1.7,1.6,1.73,1.6,1.73,1.57,1.7,1.51,1.64c.43,.46,1,1.08,1.42,1.54Z"/><path class="cls-1" d="M35.02,151.13c-4.07-4.41-8.13-8.82-12.2-13.23,8.24-.59,15.5-9.03,20.57-18.77,4.07,4.41,8.13,8.82,12.2,13.23-5.07,9.73-12.33,18.18-20.57,18.77Z"/><path class="cls-1" d="M55.32,93.58c.33,.26,.51,.38,.7,.49-1.8,2.44-3.82,4.95-6.1,7.5-3.2,14.26-13.91,35.43-27.14,36.33-.38,.02-.89,.04-1.48,.03-3.11-.07-8.51-1.06-8.62-7.07-.18-9.09,13.17-17.9,21.14-23.16,1.92-1.26,3.57-2.35,4.73-3.25,.98-3.9,2.21-13.64,3.21-21.47,.49-3.93,.93-7.33,1.21-9.16l.43-2.88-1.34,2.65c-6.31,12.47-12.29,22.87-21.48,23.83-.86,.09-1.7,.12-2.53,.1-4.05-.09-7.72-1.46-10.52-3.95-4.42-3.95-6.63-10.44-6.57-19.27C1.09,53.36,19.01,10.16,42.19,8.36c.71-.05,1.4-.07,2.07-.06,5.11,.12,9.23,2.24,11.74,6.07,4.03,6.15,3.28,15.92-2.05,26.76-1.99,3.7-6.07,5.29-9.11,5.21-.86-.02-1.63-.17-2.25-.44-1.65-.72-2.11-2.14-1.29-3.98,4.93-5.73,8.46-14.61,8.23-20.7-.23-5.5-3.25-6.87-6.08-6.94-.31,0-.61,0-.91,.02-12.74,.87-27.09,36.3-28.1,61.14-.16,4.1,1.52,8.45,4.18,10.84,1.29,1.14,2.71,1.75,4.17,1.78,.29,0,.59,0,.88-.05,5.6-.78,9-6.33,15.78-17.37,1.44-2.35,3.03-4.95,4.84-7.83l11.33-1.31c-.34,4.15-4.42,30.78-5,33.68l-.37,1.8,1.21-1.45c1.14-1.38,2.25-2.82,3.31-4.3-.06,.78,.09,1.58,.55,2.35Zm-17.5,16.42l.31-1.28-1.06,.83c-.91,.7-2.07,1.53-3.43,2.49-6.41,4.56-16.1,11.44-16.11,17.7,0,1.39,.53,2.58,1.53,3.43,.95,.81,2.27,1.27,3.73,1.3,.43,0,.86-.02,1.31-.08,5.36-.77,9.97-8.98,13.71-24.39"/><path d="M17.53,129.74c0-6.26,9.69-13.15,16.11-17.7,1.35-.96,2.52-1.79,3.43-2.49l1.06-.83-.31,1.28c-3.75,15.41-8.36,23.61-13.71,24.39-.45,.06-.89,.09-1.31,.08-1.46-.03-2.78-.49-3.73-1.3-1-.85-1.53-2.04-1.53-3.43Zm19.04-18.65c-.71,.52-1.52,1.1-2.4,1.73-6.24,4.43-15.66,11.12-15.66,16.85,0,1.12,.42,2.07,1.22,2.75,.79,.68,1.9,1.06,3.14,1.09,.38,0,.77-.01,1.17-.07,3.28-.47,8.09-4.77,12.53-22.34"/><path d="M25.79,149.29l-12.2-13.23c1.79,1.95,4.65,2.76,7.57,2.83,.54,.01,1.08,0,1.62-.04,15.18-1.03,25.34-25.13,27.94-36.78l12.2,13.23c-2.6,11.65-12.76,35.75-27.94,36.78-.53,.04-1.08,.05-1.62,.04-2.92-.07-5.77-.89-7.57-2.83Z"/><path d="M66.4,63.03l4.71-.46-.09,.58c-.82,5.01-3.04,13.49-9.06,23.66-.29-.16-.58-.28-.88-.36,5.74-9.68,7.99-17.79,8.88-22.8l-2.73,.27c-1.17,6.94-4.72,15.33-9.62,23.11-.42,.24-.81,.54-1.15,.87-.9,.86-1.59,2.08-1.69,3.35-1.06,1.48-2.17,2.92-3.31,4.3l-1.21,1.45,.37-1.8c.57-2.9,4.65-29.54,5-33.68l-11.33,1.31c-1.81,2.88-3.4,5.48-4.84,7.83-6.78,11.04-10.18,16.59-15.78,17.37-.3,.04-.59,.06-.88,.05-1.46-.03-2.89-.64-4.17-1.78-2.66-2.38-4.34-6.74-4.18-10.84,1.01-24.84,15.36-60.27,28.1-61.14,.3-.02,.61-.03,.91-.02,2.83,.07,5.85,1.45,6.08,6.94,.23,6.09-3.3,14.98-8.23,20.7-.82,1.84-.35,3.26,1.29,3.98,.62,.27,1.4,.42,2.25,.44,3.04,.07,7.12-1.52,9.11-5.21,5.33-10.84,6.07-20.61,2.05-26.76-2.51-3.83-6.63-5.95-11.74-6.07-.67-.02-1.37,0-2.07,.06C19.01,10.16,1.09,53.36,.97,74.29c-.06,8.83,2.15,15.32,6.57,19.27,2.79,2.5,6.46,3.86,10.52,3.95,.83,.02,1.67-.01,2.53-.1,9.19-.96,15.17-11.36,21.48-23.83l1.34-2.65-.43,2.88c-.27,1.84-.71,5.24-1.21,9.16-1,7.83-2.23,17.57-3.01,21.17-1.36,1.19-3.02,2.29-4.94,3.55-7.97,5.26-21.32,14.07-21.14,23.16,.11,6.01,5.51,7,8.62,7.07,.6,.01,1.11,0,1.48-.03,13.23-.9,23.93-22.07,27.01-36.1,2.4-2.78,4.43-5.29,6.23-7.74,.26,.17,.53,.33,.8,.49-1.8,2.45-3.83,4.96-6.1,7.52-2.6,11.65-12.76,35.75-27.94,36.78-.53,.04-1.08,.05-1.62,.04-4.76-.11-9.35-2.22-9.45-7.96-.19-9.65,13.46-18.65,21.62-24.04,1.81-1.19,3.39-2.23,4.52-3.08,.77-3.7,1.98-13.22,2.96-20.91,.3-2.43,.59-4.65,.82-6.42-6,11.61-11.95,20.93-21.02,21.88-.9,.09-1.79,.13-2.66,.11-4.28-.1-8.15-1.54-11.1-4.18C2.25,90.16-.07,83.46,0,74.36c.07-11.24,4.96-27.67,12.19-40.87,5.07-9.27,15.7-24.97,29.99-26.08,.74-.06,1.46-.08,2.16-.06,5.42,.13,9.8,2.37,12.48,6.46,4.21,6.44,3.48,16.54-2,27.72-2.23,4.13-6.64,5.87-10.03,5.79-1-.02-1.9-.2-2.64-.53-2.14-.94-2.79-2.91-1.71-5.28,4.88-5.67,8.34-14.29,8.11-20.19-.16-4-1.85-6-5.15-6.07-.28,0-.57,0-.87,.02-11.1,.75-26.06,33.92-27.13,60.14-.15,3.78,1.45,7.95,3.89,10.12,1.12,1,2.34,1.53,3.58,1.56,.24,0,.48,0,.73-.04,5.12-.71,8.22-5.77,15.03-16.88,1.47-2.41,3.11-5.08,4.98-8.05l12.96-1.7,.03,.47c.11,1.65-3.53,25.49-4.72,32.63,7.44-9.44,13.06-21.09,14.46-30.1l.06-.4Z"/><path class="cls-1" d="M112.62,53.53c7.55,2.13,14.77,9.75,12.83,21.45-2.52,15.46-16.93,24.67-30.08,26.93-2.87,.49-5.77,.68-8.63,.61-11.74-.27-23.06-4.76-30.62-9.57-.87-1.53-.14-3.31,1-4.4,.77-.74,1.85-1.29,2.95-1.26,.55,.01,1.11,.17,1.63,.51,.9,.39,1.89,.84,2.95,1.34,5.79,2.66,13.83,6.37,22.19,6.56,2.61,.06,5.26-.22,7.88-.99,4.22-1.23,17.96-6.27,17.97-19.24,0-10.75-6.63-19.15-13.2-21.42,10.35-5.24,21.84-19.32,21.85-30.77,0-10.06-5.41-16.19-14.28-16.39-.62-.01-1.25,0-1.9,.04-16.48,1.11-20.03,10.81-22.38,17.23-.7,1.91-1.31,3.56-2.1,4.58-.11,.15-.41,.52-1.01,.51-.18,0-.4-.04-.64-.14-1.92-.73-4.06-4-3.78-5.73,2.22-12.53,20.35-21.09,32.02-22.21,1.76-.17,3.45-.23,5.07-.19,6.82,.16,12.36,2.11,16.21,5.75,4.02,3.79,5.98,9.33,5.68,16.01-.44,9.9-6.33,22.96-21.59,29.9l-1.21,.55,1.22,.35Z"/></g></g></svg>